<svg width="39" height="33" viewBox="0 0 39 33" fill="none" xmlns="http://www.w3.org/2000/svg">
<path fill-rule="evenodd" clip-rule="evenodd" d="M3.11619 24.2961L12.6683 31.0123L35.7723 17.721L34.7878 17.0947L13.0278 29.6129L12.5833 29.8682L12.1584 29.5695L3.96602 23.8073L3.11619 24.2961ZM22.996 14.5041L22.3443 13.9339C22.0256 14.2308 21.7265 14.4353 21.4485 14.5512C21.1705 14.6671 20.8482 14.6978 20.4906 14.6453C20.1294 14.591 19.7717 14.4281 19.4123 14.1584L19.8444 13.3818C20.2392 13.637 20.5721 13.7728 20.8447 13.7854C21.2342 13.8017 21.5494 13.6913 21.7955 13.4542L19.7541 11.6656C19.4549 11.8792 19.1096 12.0584 18.713 12.205C18.4209 12.3173 18.1252 12.339 17.8242 12.2739C17.5232 12.2087 17.2434 12.062 16.9814 11.8358C16.5192 11.4302 16.2838 10.9342 16.2785 10.3495C16.2732 9.95666 16.4325 9.52038 16.7583 9.04246L16.4467 8.77092L16.776 8.37807L17.0876 8.64963C17.4452 8.29662 17.8135 8.09023 18.1889 8.02687C18.6669 7.9454 19.1379 8.05583 19.6 8.35815L19.1344 9.12936C18.844 8.9429 18.5767 8.85057 18.3359 8.856C18.0933 8.85781 17.8596 8.95013 17.6347 9.12754L19.5098 10.7677C19.8727 10.507 20.1223 10.3441 20.2604 10.2753C20.5207 10.1467 20.7703 10.0743 21.0076 10.0562C21.2448 10.0363 21.4804 10.0689 21.7141 10.1522C21.9478 10.2372 22.1673 10.3694 22.3727 10.5468C22.8224 10.9415 23.0738 11.4158 23.1323 11.9733C23.1889 12.5291 23.0314 13.0469 22.6649 13.5302L23.3235 14.1077L22.996 14.5041ZM17.2983 9.51857C17.1213 9.81003 17.0504 10.1015 17.0929 10.3929C17.1318 10.6862 17.2646 10.9288 17.4895 11.1261C17.7108 11.3198 17.9499 11.4212 18.203 11.4248C18.4598 11.4284 18.752 11.3144 19.0813 11.079L17.2983 9.51857ZM22.1266 13.0613C22.3107 12.7753 22.3816 12.4657 22.332 12.1326C22.2878 11.8014 22.1249 11.5117 21.8486 11.2691C21.6114 11.0627 21.3724 10.9559 21.1298 10.9505C20.8872 10.9451 20.5702 11.0809 20.1825 11.3596L22.1266 13.0613ZM19.1255 5.74228C20.1082 5.80021 21.1298 6.07538 22.1036 6.58588C23.6475 7.3969 24.7895 8.65685 25.3862 10.0363C25.9988 11.4538 26.0413 13.0016 25.372 14.3448L35.7705 8.36177L25.7155 1.95693L19.1255 5.74228ZM20.719 17.0223L12.6665 21.6548L3.11446 14.9386L13.851 8.77092C13.3553 10.0273 13.4403 11.4266 13.9998 12.7192C14.5947 14.0986 15.7349 15.3568 17.2806 16.1696C18.4067 16.7598 19.5965 17.035 20.719 17.0223ZM17.6985 7.09818C16.5671 7.33714 15.6163 7.98162 15.1187 8.97185C14.623 9.96028 14.6637 11.1243 15.1329 12.2087C15.6198 13.3365 16.5653 14.3702 17.8489 15.0454C19.1343 15.7225 20.5066 15.9053 21.6875 15.6537C22.8207 15.4147 23.7696 14.7703 24.2672 13.78C24.7629 12.7916 24.7223 11.6276 24.2548 10.5432C23.7679 9.41718 22.8225 8.38168 21.5388 7.70644C20.2516 7.0312 18.8794 6.84836 17.6985 7.09818ZM12.1567 23.3384L12.5816 23.6371L13.0259 23.3801L34.8958 10.7985L35.7705 11.356L12.6665 24.6473L3.11446 17.9292L3.85979 17.502L12.1567 23.3384ZM2.34773 16.4394L1.09244 15.5559L0.00529523 14.792L1.15793 14.1294L25.333 0.244381L25.758 0L26.1705 0.264297L37.8189 7.68652L39 8.43961L37.7853 9.1366L36.53 9.85891L37.8189 10.679L39 11.432L37.7853 12.129L36.3282 12.969L37.8189 13.9194L39 14.6725L37.7853 15.3713L36.4203 16.1569L37.8172 17.0476L38.9982 17.8007L37.7836 18.4977L13.0225 32.7429L12.578 33L12.1531 32.7013L1.08887 24.9206L0.00183712 24.1549L1.15447 23.4941L2.44694 22.7501L1.08714 21.7942L0 21.0285L1.15263 20.3677L2.53544 19.573L1.08714 18.5538L0 17.7898L1.15263 17.1273L2.34773 16.4394ZM34.6922 13.9086L35.7687 14.5947L12.6648 27.8859L3.11262 21.1697L4.05107 20.632L12.1531 26.3309L12.578 26.6295L13.0225 26.3725L34.6922 13.9086Z" fill="white"/>
</svg>
